Patient4_TMGait_0pt5_02_left_17_EMG.mot
version=1
nRows=13
nColumns=33
inDegrees=no
endheader
time	1LAddLong	2LGlutMax	3LGlutMed	4LIliopsoas	5LSemiMemb	6LBicFemLong	7LRecFem	8LVastMed	9LVastLat	10LGasMed	11LTibAnt	12lTibPost	13LPeroneusLong	14LSol	15LExtDigLong	16LFlexDigLong	17RAddLong	18RGlutMax	19RGlutMed	20RIliopsoas	21RSemiMemb	22RBicFemLong	23RRecFem	24RVastMed	25RVastLat	26RGasMed	27RTibAnt	28RTibPost	29RPeroneusLong	30RSol	31RExtDigLong	32RFlexDigLong
22.39	-0.019684	-0.15732	-0.005798	0.002441	-0.011749	0.016174	0.20157	-0.001984	0.015259	-1.1996	0.018005	0.032043	-0.095978	0.19318	-0.000763	-0.02182	-0.033875	-0.051422	-0.034027	0.012817	0.33005	0.17441	0.031128	-0.1741	0.42847	-0.009613	0.28748	-0.001678	0.043488	-0.015869	0.006104	-0.002899
22.391	-0.016785	-0.15549	0.006561	0.011902	-0.040894	0.067902	0.20264	0.001526	0.016174	-0.62927	0.012512	0.014648	-0.054474	0.19028	0.005646	-0.007782	-0.043335	0.055542	-0.088959	0.11368	0.11475	0.36163	-0.11276	-0.053864	0.13809	-0.009003	0.33203	-0.000763	0.025482	-0.027313	0.010376	-0.002136
22.392	-0.014343	-0.15015	-0.003052	0.003052	-0.051727	0.056763	0.20828	0.004272	0.022125	-0.49896	0.009308	-0.004272	0.039368	0.14572	0.030823	-0.008087	0.040588	0.00473	-0.17425	0.037231	0.12253	0.29205	-0.1712	-0.026093	-0.25192	-0.00946	0.49377	-0.003204	-0.000458	-0.027466	0.008392	-0.006866
22.393	-0.014343	-0.088654	0.017242	-0.012207	0.006104	-0.0737	0.21332	0.002136	0.025787	-0.41107	0.001984	-0.004425	0.06897	0.10773	0.050964	-0.01358	0.11169	0.026855	-0.019226	-0.016327	0.30411	0.159	-0.39932	0.014648	-0.32196	-0.012512	0.54718	0.003662	-0.014343	-0.016479	0.009613	-0.00885
22.394	-0.001373	-0.14862	0.01236	-0.002747	0.10284	-0.089111	0.19287	0.002441	0.031586	-0.21942	-0.007324	-0.007172	0.023041	0.097809	0.054779	-0.010071	0.14893	-0.001526	0.055237	-0.009918	0.26474	0.032501	-0.40253	0.041504	-0.26947	-0.002747	0.25269	-0.003662	0.031281	-0.085449	0.006104	-0.009155
22.395	0.01358	-0.14511	0.004578	0.000763	0.11185	-0.051727	0.20264	-0.002441	0.034332	-0.041351	0.009155	-0.015411	-0.003967	0.094147	0.041504	-0.57663	0.20493	-0.044556	0.13473	-0.007477	-0.02243	0.067291	-0.1091	0.008392	-0.17914	0.000763	-0.37415	0.001221	0.062866	-0.14893	0.012207	-0.004272
22.396	0.017242	-0.17181	-0.017395	-0.001068	0.078583	-0.050354	0.19043	0.001221	0.036621	-0.068359	0.000763	-0.017242	0.032654	0.040588	0.053864	-0.084991	0.16235	-0.066833	0.083313	-0.033875	0.02655	0.13992	0.059509	0.16571	-0.10956	0.000763	-0.51193	0.000763	0.13321	-0.14633	0.011444	-0.002289
22.397	0.013123	-0.14511	0.003052	0.005493	0.027161	-0.002747	0.18341	-0.006104	0.034637	0.10239	0.016937	-0.012665	0.046082	0.040894	0.03006	0.98251	0.0177	-0.051575	-0.18784	-0.024872	-0.28107	0.30685	0.074005	0.3833	-0.048828	-0.004578	-0.32532	-0.002136	0.12894	-0.11566	0.011597	-0.011597
22.398	0.015106	-0.15366	-0.000153	-0.003815	0.012665	0.034943	0.18829	0.000305	0.016937	0.83283	0.015259	-0.011139	0.032654	0.10101	0.038147	-0.28244	-0.16739	-0.013428	-0.2121	-0.083466	-0.14816	0.43594	-0.037537	0.47333	0.2858	-0.00473	0.016785	-0.005646	0.027618	-0.12924	0.006561	-0.01358
22.399	0.013885	-0.17258	0.006409	-0.002594	0.004883	0.061493	0.1535	0.004425	0.018768	1.1722	0.010681	-0.015717	0.000153	0.11505	0.022125	-0.009003	-0.18326	-0.081177	-0.14114	-0.1355	0.43182	0.32303	-0.11444	0.25848	0.56427	-0.001984	0.38422	-0.000153	0.016785	-0.12146	0.012665	-0.016174
22.4	0.016479	-0.19379	0.012207	0.005951	-0.004272	0.074615	0.12894	0.011139	0.00824	-0.35919	0.016174	-0.023499	-0.019226	0.15808	-0.041656	0.007172	-0.1294	-0.070648	0.16129	-0.15488	0.6163	0.20386	-0.12131	0.11566	0.51743	-0.00061	-0.00351	-0.000763	0.050964	-0.075531	0.012207	-0.020447
22.401	0.009918	-0.18341	0.034485	0.010223	-0.024872	0.034332	0.14145	0.010223	-0.000458	-0.82245	0.021973	-0.011444	-0.082245	0.10574	-0.069122	-0.39459	-0.12848	-0.11185	0.1329	-0.13336	0.71945	0.20279	-0.11307	0.093536	0.2739	-0.001526	-0.35599	-0.000763	0.093689	-0.075989	0.017548	-0.021667
22.402	0.010376	-0.15976	0.046997	0.022278	-0.020294	-0.005035	0.14282	-0.027771	-0.004578	-0.43182	0.005188	0.011139	-0.12711	0.16876	-0.070953	0.34332	-0.13794	-0.15121	0.081635	-0.062256	0.62027	0.1619	-0.082855	0.1413	-0.050354	0.006409	-0.26093	-0.005341	0.065308	-0.099792	0.014801	-0.016327
